<?xml version="1.0" encoding="UTF-8"?>
<svg version="1.1" xmlns="http://www.w3.org/2000/svg" width="598" height="640">
<path d="M0 0 C2.51621731 1.02994272 5.06157706 1.88669342 7.64404297 2.73681641 C9.09725952 3.2169519 9.09725952 3.2169519 10.57983398 3.70678711 C11.59231201 4.04025146 12.60479004 4.37371582 13.64794922 4.71728516 C23.54567783 7.99913613 33.39231512 11.39338823 43.21044922 14.90478516 C48.23018863 16.69953192 53.25079838 18.49179902 58.27294922 20.27978516 C58.9431308 20.51842285 59.61331238 20.75706055 60.30380249 21.00292969 C70.18408779 24.51708163 80.09719779 27.91217864 90.05639648 31.19726562 C96.29708653 33.25746445 102.50123676 35.3990464 108.68896484 37.61254883 C115.9460414 40.19425905 123.25956978 42.60572034 130.57568359 45.01416016 C136.25514324 46.89078483 141.88571379 48.86561813 147.50048828 50.92724609 C151.93740778 52.52773489 156.41696735 53.99567119 160.89794922 55.46728516 C166.39634743 57.27338683 171.86325638 59.11445183 177.2722168 61.17407227 C180.73031394 62.47777358 184.22124621 63.68734669 187.71044922 64.90478516 C188.94492798 65.33730591 188.94492798 65.33730591 190.2043457 65.77856445 C195.96923819 67.79226804 201.74554799 69.77090142 207.52685547 71.73681641 C209.71442276 72.48246879 211.90189596 73.2283967 214.08935547 73.97436523 C215.54176197 74.46851472 216.99472351 74.96103587 218.44824219 75.4519043 C220.5070255 76.14719722 222.56394501 76.84777343 224.62060547 77.54931641 C225.8182251 77.95512939 227.01584473 78.36094238 228.24975586 78.77905273 C231.21044922 79.90478516 231.21044922 79.90478516 234.21044922 81.90478516 C234.50894304 85.02151304 234.61000803 87.94000985 234.58467102 91.05957031 C234.58864543 92.02046444 234.59261983 92.98135857 234.59671468 93.9713707 C234.60638882 97.21234395 234.59448802 100.4528862 234.58276367 103.69384766 C234.5851902 106.00973677 234.58890817 108.32562484 234.59382629 110.64151001 C234.60326625 116.95237172 234.59377932 123.26307913 234.58049417 129.57392883 C234.57033975 135.51290126 234.57279242 141.45185888 234.57469668 147.39083767 C234.57789064 159.17773945 234.56620357 170.96458096 234.54663086 182.75146484 C234.52769429 194.15838464 234.52052468 205.56523358 234.52612305 216.97216797 C234.53220561 229.4023531 234.53195337 241.83250701 234.52063721 254.26268959 C234.51468005 260.83718156 234.51095266 267.41165034 234.51360512 273.98614502 C234.51550394 280.18476343 234.50726285 286.38329214 234.49154472 292.58189011 C234.48733886 294.84480798 234.48642605 297.10773502 234.48923492 299.37065506 C234.5062875 315.58151102 234.41061086 332.01006217 229.89794922 347.71728516 C229.68066162 348.50514404 229.46337402 349.29300293 229.23950195 350.10473633 C227.32150639 356.88165399 224.94467593 363.41403926 222.21044922 369.90478516 C221.48148438 371.69916016 221.48148438 371.69916016 220.73779297 373.52978516 C218.31941607 379.36852632 215.86738908 384.9229975 212.35498047 390.18603516 C211.24513263 391.85270085 210.25614531 393.59790499 209.27294922 395.34228516 C199.82925169 412.02994344 186.92133545 426.62162155 173.21044922 439.90478516 C172.42154297 440.69884766 171.63263672 441.49291016 170.81982422 442.31103516 C163.39643963 449.68996834 155.79322207 456.88924879 147.21044922 462.90478516 C146.16244141 463.66275391 145.11443359 464.42072266 144.03466797 465.20166016 C137.1134945 470.20477887 130.13224682 475.10629589 122.97021484 479.76074219 C121.70380995 480.58404592 120.43976609 481.41098553 119.17724609 482.24023438 C96.1066861 497.35278177 71.09549947 510.00454886 45.39477539 520.04174805 C43.48261769 520.79725017 41.59406748 521.61195217 39.71044922 522.43603516 C34.4287444 524.65246486 29.01128627 526.44748413 23.59326172 528.29931641 C19.77683352 529.61592613 16.00285425 530.94829008 12.30029297 532.56103516 C8.9866257 534.00212434 5.68727965 534.92883276 2.21044922 535.90478516 C0.89544065 536.440333 -0.41699879 536.98222436 -1.72705078 537.52978516 C-6.49108596 539.31629835 -10.97822873 539.96926632 -15.80126953 538.14306641 C-17.26998168 537.45621951 -18.7318266 536.75457277 -20.18798828 536.04150391 C-23.25055762 534.70335424 -26.31468963 533.84321751 -29.53955078 532.96728516 C-36.49214213 531.06020286 -43.10023799 528.57507916 -49.78955078 525.90478516 C-51.14206551 525.40033372 -52.49600687 524.89967128 -53.85205078 524.40478516 C-70.83366362 518.06102461 -88.597896 511.16987578 -104.00830078 501.56103516 C-107.36419193 499.56258312 -110.83372162 497.9067482 -114.35205078 496.21728516 C-123.97057511 491.53784571 -132.84643867 485.74653967 -141.78955078 479.90478516 C-142.88138672 479.20353516 -143.97322266 478.50228516 -145.09814453 477.77978516 C-156.46663294 470.3756136 -167.47280766 462.3172576 -177.41064453 453.06884766 C-180.92725536 449.86982893 -184.63356462 446.91737466 -188.34423828 443.94775391 C-190.63974315 442.02994392 -192.78640494 440.1268795 -194.78955078 437.90478516 C-194.78955078 437.24478516 -194.78955078 436.58478516 -194.78955078 435.90478516 C-195.35158203 435.67791016 -195.91361328 435.45103516 -196.49267578 435.21728516 C-222.45266793 420.38300393 -241.17642642 377.28887505 -248.78955078 349.90478516 C-250.66598795 341.94472105 -251.99762758 333.88656345 -252.57861328 325.72509766 C-252.69586358 323.80775642 -252.69586358 323.80775642 -253.78955078 321.90478516 C-253.89450709 318.81456782 -253.93734286 315.74653782 -253.9367218 312.65579224 C-253.94039849 311.68502019 -253.94407518 310.71424814 -253.94786328 309.71405876 C-253.95893215 306.44055215 -253.96274935 303.16707724 -253.96655273 299.89355469 C-253.97281486 297.55495095 -253.97946143 295.21634822 -253.98646545 292.87774658 C-254.00389614 286.51003439 -254.01443239 280.14232971 -254.02267098 273.77459955 C-254.02781569 269.80022074 -254.03389159 265.82584428 -254.04018211 261.85146713 C-254.05719391 250.85222518 -254.07168925 239.85298424 -254.07893085 228.85373116 C-254.08084081 225.99884159 -254.08276114 223.14395203 -254.0847168 220.2890625 C-254.08520054 219.57947643 -254.08568428 218.86989036 -254.08618268 218.13880168 C-254.09448738 206.63763078 -254.11983187 195.13656374 -254.15229747 183.63543822 C-254.18534128 171.83350397 -254.20337713 160.03162256 -254.2065751 148.2296418 C-254.20874254 141.60077095 -254.21796625 134.97203438 -254.24303627 128.3432045 C-254.26622862 122.11011341 -254.27058586 115.87729563 -254.26027489 109.64417267 C-254.25977729 107.35278543 -254.26616304 105.06138513 -254.27983093 102.7700386 C-254.297411 99.64894196 -254.29051207 96.52884103 -254.27729797 93.40774536 C-254.28826722 92.49471527 -254.29923647 91.58168518 -254.31053811 90.64098752 C-254.24779406 84.52971711 -254.24779406 84.52971711 -251.95297527 81.40014458 C-249.10308733 79.43030149 -246.28867898 78.33409318 -243.02392578 77.17041016 C-242.03261909 76.81231766 -242.03261909 76.81231766 -241.02128601 76.44699097 C-238.86458443 75.6715424 -236.70240812 74.91287683 -234.53955078 74.15478516 C-233.02505975 73.61495726 -231.51082036 73.0744229 -229.99682617 72.53320312 C-220.8622849 69.28063768 -211.69065005 66.14608341 -202.47558594 63.12890625 C-190.71406609 59.26353484 -179.04895511 55.11871161 -167.37329102 51.00292969 C-158.57270715 47.90467655 -149.76043773 44.85713723 -140.89395142 41.95187378 C-136.74907078 40.5873108 -132.65664817 39.12497682 -128.57702637 37.57629395 C-126.40550411 36.76050866 -124.21624618 36.01450273 -122.01220703 35.29150391 C-121.17802246 35.01628906 -120.34383789 34.74107422 -119.484375 34.45751953 C-118.61570801 34.17199219 -117.74704102 33.88646484 -116.85205078 33.59228516 C-104.99338948 29.66362342 -93.21242796 25.55924595 -81.50585938 21.19799805 C-74.54030738 18.60470553 -67.59253606 16.17236591 -60.46533203 14.05322266 C-55.514492 12.50641398 -50.6237675 10.80165669 -45.72705078 9.09228516 C-44.74309326 8.75011963 -43.75913574 8.4079541 -42.74536133 8.05541992 C-37.86279186 6.35147601 -32.99316793 4.61964447 -28.14111328 2.83056641 C-27.2491626 2.50612549 -26.35721191 2.18168457 -25.43823242 1.84741211 C-23.76679817 1.23819775 -22.09898462 0.61891372 -20.43579102 -0.01245117 C-13.07762447 -2.67827232 -7.46177558 -3.10286258 0 0 Z " fill="#224931" transform="translate(314.78955078125,55.09521484375)"/>
<path d="M0 0 C2.51621731 1.02994272 5.06157706 1.88669342 7.64404297 2.73681641 C9.09725952 3.2169519 9.09725952 3.2169519 10.57983398 3.70678711 C11.59231201 4.04025146 12.60479004 4.37371582 13.64794922 4.71728516 C23.54567783 7.99913613 33.39231512 11.39338823 43.21044922 14.90478516 C48.23018863 16.69953192 53.25079838 18.49179902 58.27294922 20.27978516 C58.9431308 20.51842285 59.61331238 20.75706055 60.30380249 21.00292969 C70.18408779 24.51708163 80.09719779 27.91217864 90.05639648 31.19726562 C96.29708653 33.25746445 102.50123676 35.3990464 108.68896484 37.61254883 C115.9460414 40.19425905 123.25956978 42.60572034 130.57568359 45.01416016 C136.25514324 46.89078483 141.88571379 48.86561813 147.50048828 50.92724609 C151.93740778 52.52773489 156.41696735 53.99567119 160.89794922 55.46728516 C166.39634743 57.27338683 171.86325638 59.11445183 177.2722168 61.17407227 C180.73031394 62.47777358 184.22124621 63.68734669 187.71044922 64.90478516 C188.94492798 65.33730591 188.94492798 65.33730591 190.2043457 65.77856445 C195.96923819 67.79226804 201.74554799 69.77090142 207.52685547 71.73681641 C209.71442276 72.48246879 211.90189596 73.2283967 214.08935547 73.97436523 C215.54176197 74.46851472 216.99472351 74.96103587 218.44824219 75.4519043 C220.5070255 76.14719722 222.56394501 76.84777343 224.62060547 77.54931641 C225.8182251 77.95512939 227.01584473 78.36094238 228.24975586 78.77905273 C231.21044922 79.90478516 231.21044922 79.90478516 234.21044922 81.90478516 C234.50894304 85.02151304 234.61000803 87.94000985 234.58467102 91.05957031 C234.58864543 92.02046444 234.59261983 92.98135857 234.59671468 93.9713707 C234.60638882 97.21234395 234.59448802 100.4528862 234.58276367 103.69384766 C234.5851902 106.00973677 234.58890817 108.32562484 234.59382629 110.64151001 C234.60326625 116.95237172 234.59377932 123.26307913 234.58049417 129.57392883 C234.57033975 135.51290126 234.57279242 141.45185888 234.57469668 147.39083767 C234.57789064 159.17773945 234.56620357 170.96458096 234.54663086 182.75146484 C234.52769429 194.15838464 234.52052468 205.56523358 234.52612305 216.97216797 C234.53220561 229.4023531 234.53195337 241.83250701 234.52063721 254.26268959 C234.51468005 260.83718156 234.51095266 267.41165034 234.51360512 273.98614502 C234.51550394 280.18476343 234.50726285 286.38329214 234.49154472 292.58189011 C234.48733886 294.84480798 234.48642605 297.10773502 234.48923492 299.37065506 C234.5062875 315.58151102 234.41061086 332.01006217 229.89794922 347.71728516 C229.68066162 348.50514404 229.46337402 349.29300293 229.23950195 350.10473633 C227.32150639 356.88165399 224.94467593 363.41403926 222.21044922 369.90478516 C221.48148438 371.69916016 221.48148438 371.69916016 220.73779297 373.52978516 C218.31941607 379.36852632 215.86738908 384.9229975 212.35498047 390.18603516 C211.24513263 391.85270085 210.25614531 393.59790499 209.27294922 395.34228516 C199.82925169 412.02994344 186.92133545 426.62162155 173.21044922 439.90478516 C172.42154297 440.69884766 171.63263672 441.49291016 170.81982422 442.31103516 C163.39643963 449.68996834 155.79322207 456.88924879 147.21044922 462.90478516 C146.16244141 463.66275391 145.11443359 464.42072266 144.03466797 465.20166016 C137.1134945 470.20477887 130.13224682 475.10629589 122.97021484 479.76074219 C121.70380995 480.58404592 120.43976609 481.41098553 119.17724609 482.24023438 C96.1066861 497.35278177 71.09549947 510.00454886 45.39477539 520.04174805 C43.48261769 520.79725017 41.59406748 521.61195217 39.71044922 522.43603516 C34.4287444 524.65246486 29.01128627 526.44748413 23.59326172 528.29931641 C19.77683352 529.61592613 16.00285425 530.94829008 12.30029297 532.56103516 C8.9866257 534.00212434 5.68727965 534.92883276 2.21044922 535.90478516 C0.89544065 536.440333 -0.41699879 536.98222436 -1.72705078 537.52978516 C-6.49108596 539.31629835 -10.97822873 539.96926632 -15.80126953 538.14306641 C-17.26998168 537.45621951 -18.7318266 536.75457277 -20.18798828 536.04150391 C-23.25055762 534.70335424 -26.31468963 533.84321751 -29.53955078 532.96728516 C-36.49214213 531.06020286 -43.10023799 528.57507916 -49.78955078 525.90478516 C-51.14206551 525.40033372 -52.49600687 524.89967128 -53.85205078 524.40478516 C-70.83366362 518.06102461 -88.597896 511.16987578 -104.00830078 501.56103516 C-107.36419193 499.56258312 -110.83372162 497.9067482 -114.35205078 496.21728516 C-123.97057511 491.53784571 -132.84643867 485.74653967 -141.78955078 479.90478516 C-142.88138672 479.20353516 -143.97322266 478.50228516 -145.09814453 477.77978516 C-156.46663294 470.3756136 -167.47280766 462.3172576 -177.41064453 453.06884766 C-180.92725536 449.86982893 -184.63356462 446.91737466 -188.34423828 443.94775391 C-190.63974315 442.02994392 -192.78640494 440.1268795 -194.78955078 437.90478516 C-194.78955078 437.24478516 -194.78955078 436.58478516 -194.78955078 435.90478516 C-195.35158203 435.67791016 -195.91361328 435.45103516 -196.49267578 435.21728516 C-222.45266793 420.38300393 -241.17642642 377.28887505 -248.78955078 349.90478516 C-250.66598795 341.94472105 -251.99762758 333.88656345 -252.57861328 325.72509766 C-252.69586358 323.80775642 -252.69586358 323.80775642 -253.78955078 321.90478516 C-253.89450709 318.81456782 -253.93734286 315.74653782 -253.9367218 312.65579224 C-253.94039849 311.68502019 -253.94407518 310.71424814 -253.94786328 309.71405876 C-253.95893215 306.44055215 -253.96274935 303.16707724 -253.96655273 299.89355469 C-253.97281486 297.55495095 -253.97946143 295.21634822 -253.98646545 292.87774658 C-254.00389614 286.51003439 -254.01443239 280.14232971 -254.02267098 273.77459955 C-254.02781569 269.80022074 -254.03389159 265.82584428 -254.04018211 261.85146713 C-254.05719391 250.85222518 -254.07168925 239.85298424 -254.07893085 228.85373116 C-254.08084081 225.99884159 -254.08276114 223.14395203 -254.0847168 220.2890625 C-254.08520054 219.57947643 -254.08568428 218.86989036 -254.08618268 218.13880168 C-254.09448738 206.63763078 -254.11983187 195.13656374 -254.15229747 183.63543822 C-254.18534128 171.83350397 -254.20337713 160.03162256 -254.2065751 148.2296418 C-254.20874254 141.60077095 -254.21796625 134.97203438 -254.24303627 128.3432045 C-254.26622862 122.11011341 -254.27058586 115.87729563 -254.26027489 109.64417267 C-254.25977729 107.35278543 -254.26616304 105.06138513 -254.27983093 102.7700386 C-254.297411 99.64894196 -254.29051207 96.52884103 -254.27729797 93.40774536 C-254.28826722 92.49471527 -254.29923647 91.58168518 -254.31053811 90.64098752 C-254.24779406 84.52971711 -254.24779406 84.52971711 -251.95297527 81.40014458 C-249.10308733 79.43030149 -246.28867898 78.33409318 -243.02392578 77.17041016 C-242.03261909 76.81231766 -242.03261909 76.81231766 -241.02128601 76.44699097 C-238.86458443 75.6715424 -236.70240812 74.91287683 -234.53955078 74.15478516 C-233.02505975 73.61495726 -231.51082036 73.0744229 -229.99682617 72.53320312 C-220.8622849 69.28063768 -211.69065005 66.14608341 -202.47558594 63.12890625 C-190.71406609 59.26353484 -179.04895511 55.11871161 -167.37329102 51.00292969 C-158.57270715 47.90467655 -149.76043773 44.85713723 -140.89395142 41.95187378 C-136.74907078 40.5873108 -132.65664817 39.12497682 -128.57702637 37.57629395 C-126.40550411 36.76050866 -124.21624618 36.01450273 -122.01220703 35.29150391 C-121.17802246 35.01628906 -120.34383789 34.74107422 -119.484375 34.45751953 C-118.61570801 34.17199219 -117.74704102 33.88646484 -116.85205078 33.59228516 C-104.99338948 29.66362342 -93.21242796 25.55924595 -81.50585938 21.19799805 C-74.54030738 18.60470553 -67.59253606 16.17236591 -60.46533203 14.05322266 C-55.514492 12.50641398 -50.6237675 10.80165669 -45.72705078 9.09228516 C-44.74309326 8.75011963 -43.75913574 8.4079541 -42.74536133 8.05541992 C-37.86279186 6.35147601 -32.99316793 4.61964447 -28.14111328 2.83056641 C-27.2491626 2.50612549 -26.35721191 2.18168457 -25.43823242 1.84741211 C-23.76679817 1.23819775 -22.09898462 0.61891372 -20.43579102 -0.01245117 C-13.07762447 -2.67827232 -7.46177558 -3.10286258 0 0 Z M-21.78955078 49.90478516 C-22.11955078 50.56478516 -22.44955078 51.22478516 -22.78955078 51.90478516 C-24.54858398 52.51147461 -24.54858398 52.51147461 -26.84033203 53.01806641 C-27.67773926 53.21134521 -28.51514648 53.40462402 -29.37792969 53.60375977 C-30.72636963 53.90745483 -30.72636963 53.90745483 -32.10205078 54.21728516 C-38.92943785 55.83505558 -45.25148305 57.69286403 -51.66455078 60.58056641 C-60.25702684 64.22162814 -69.33305115 66.93042249 -78.28955078 69.52978516 C-82.31098054 70.70612175 -86.13548553 72.20216337 -90.00830078 73.79541016 C-96.61087347 76.42902061 -103.34170753 78.77180593 -110.09423828 80.99072266 C-112.70641249 81.79530828 -112.70641249 81.79530828 -114.66455078 82.90478516 C-116.78955078 83.90478516 -116.78955078 83.90478516 -120.27392578 84.75634766 C-125.33034695 85.99218405 -130.23324184 87.62172186 -135.16455078 89.27978516 C-136.04626953 89.57111328 -136.92798828 89.86244141 -137.83642578 90.16259766 C-143.13179851 91.93289822 -148.32255757 93.86778568 -153.48120117 96.00463867 C-156.71504134 97.26568243 -160.01625861 98.2253109 -163.34814453 99.18994141 C-169.17419447 100.89580883 -174.86169851 102.92789347 -180.54150391 105.06640625 C-184.58840402 106.57564333 -188.6557445 108.02542878 -192.72705078 109.46728516 C-193.56945312 109.77085937 -194.41185547 110.07443359 -195.27978516 110.38720703 C-200.17104971 112.11552915 -204.98299749 113.49655914 -210.0769043 114.49047852 C-211.81098581 114.7525462 -211.81098581 114.7525462 -212.78955078 115.90478516 C-212.88953674 118.45098924 -212.92396023 120.97013111 -212.91653442 123.51687622 C-212.91809441 124.32385763 -212.91965441 125.13083904 -212.92126167 125.96227443 C-212.92527555 128.68808391 -212.92208036 131.41383847 -212.91894531 134.13964844 C-212.92029933 136.0858768 -212.92207927 138.0321049 -212.92425537 139.97833252 C-212.92883387 145.2849027 -212.92703733 150.59145354 -212.92387629 155.89802408 C-212.9213498 161.45373494 -212.9236915 167.00944411 -212.92526245 172.56515503 C-212.92708542 181.91192929 -212.92467673 191.25869568 -212.91992188 200.60546875 C-212.91450126 211.38484018 -212.91622531 222.16419263 -212.92174828 232.94356358 C-212.92630244 242.20488971 -212.92691805 251.46621015 -212.92430961 260.72753704 C-212.92275661 266.25509951 -212.92252572 271.78265311 -212.9258461 277.310215 C-212.92875751 282.52221044 -212.92668963 287.73418176 -212.92095184 292.94617462 C-212.91964069 294.84914231 -212.91999002 296.75211205 -212.92221451 298.65507889 C-212.93366189 309.45279163 -212.68447139 320.14032528 -211.78955078 330.90478516 C-210.79955078 330.90478516 -209.80955078 330.90478516 -208.78955078 330.90478516 C-208.77537109 331.77619141 -208.76119141 332.64759766 -208.74658203 333.54541016 C-208.43981202 341.20636936 -207.31205456 347.23904579 -204.04345703 354.18603516 C-202.72749454 357.039337 -201.73612221 359.91097786 -200.78955078 362.90478516 C-200.12955078 362.90478516 -199.46955078 362.90478516 -198.78955078 362.90478516 C-198.66580078 363.62666016 -198.54205078 364.34853516 -198.41455078 365.09228516 C-197.79905768 367.8620041 -196.90510704 370.30182055 -195.78955078 372.90478516 C-195.12955078 372.90478516 -194.46955078 372.90478516 -193.78955078 372.90478516 C-193.45503906 374.14808594 -193.45503906 374.14808594 -193.11376953 375.41650391 C-191.49645408 379.67686585 -189.22601332 383.01846231 -186.60205078 386.71728516 C-186.11099854 387.41853516 -185.61994629 388.11978516 -185.11401367 388.84228516 C-179.80894031 396.66244213 -179.80894031 396.66244213 -173.78955078 403.90478516 C-173.12955078 403.90478516 -172.46955078 403.90478516 -171.78955078 403.90478516 C-171.58330078 404.43587891 -171.37705078 404.96697266 -171.16455078 405.51416016 C-169.22209518 408.89138411 -166.54532156 411.44348133 -163.78955078 414.15478516 C-162.91713745 415.02031006 -162.91713745 415.02031006 -162.02709961 415.90332031 C-157.91269357 419.93253846 -153.63511557 423.62457041 -149.06298828 427.13134766 C-146.81465315 428.88520358 -144.71247084 430.73842672 -142.60205078 432.65478516 C-140.22725831 434.76677363 -137.95240496 436.50470081 -135.16455078 438.02978516 C-132.55205749 439.48117032 -130.68843309 440.73789686 -128.47705078 442.65478516 C-126.11813468 445.11876404 -126.11813468 445.11876404 -123.78955078 444.90478516 C-123.78955078 445.56478516 -123.78955078 446.22478516 -123.78955078 446.90478516 C-123.06509766 447.23091797 -122.34064453 447.55705078 -121.59423828 447.89306641 C-106.99626913 454.49134846 -106.99626913 454.49134846 -105.78955078 456.90478516 C-101.54543167 459.31462777 -101.54543167 459.31462777 -96.78955078 459.90478516 C-96.78955078 460.56478516 -96.78955078 461.22478516 -96.78955078 461.90478516 C-91.30134316 464.80356705 -85.94104944 467.30584035 -80.01611328 469.15869141 C-75.13431418 470.79452233 -70.47654748 473.01288936 -65.93017578 475.41650391 C-62.71007189 476.94244866 -59.6765861 477.84191061 -56.22705078 478.71728516 C-51.50313673 480.01231455 -47.28601802 481.51692146 -42.91455078 483.71728516 C-36.61107012 486.7676081 -30.12556727 488.80076639 -23.41455078 490.77978516 C-22.37959473 491.09020752 -21.34463867 491.40062988 -20.27832031 491.72045898 C-12.87487469 493.84404417 -6.79973843 495.03789144 0.58544922 492.15478516 C1.53419922 491.78869141 2.48294922 491.42259766 3.46044922 491.04541016 C5.86366563 490.04862153 8.22515803 488.99815534 10.58544922 487.90478516 C15.26930812 485.764312 20.10457459 484.31970734 25.03466797 482.85400391 C29.12714439 481.6307914 33.16548636 480.27595901 37.21044922 478.90478516 C37.21044922 478.24478516 37.21044922 477.58478516 37.21044922 476.90478516 C38.24298828 476.71529297 38.24298828 476.71529297 39.29638672 476.52197266 C42.53100082 475.83689353 45.66549781 474.96983971 48.83544922 474.02978516 C49.96208984 473.70236328 51.08873047 473.37494141 52.24951172 473.03759766 C55.16531636 471.92205234 56.12934192 471.0776217 58.21044922 468.90478516 C60.55810547 467.94775391 60.55810547 467.94775391 63.27294922 467.09228516 C68.16999983 465.40209577 72.25654839 463.22309798 76.62451172 460.46728516 C79.35940493 458.81478171 82.14606159 457.41914821 85.02294922 456.02978516 C90.72662304 453.24066652 96.03889151 450.02797606 101.39794922 446.63916016 C103.63526821 445.25948011 105.83613704 444.02345147 108.21044922 442.90478516 C108.21044922 442.24478516 108.21044922 441.58478516 108.21044922 440.90478516 C108.75443359 440.82357422 109.29841797 440.74236328 109.85888672 440.65869141 C113.04648259 439.63675452 115.1847628 437.88100571 117.83544922 435.84228516 C118.35743896 435.44323975 118.87942871 435.04419434 119.41723633 434.63305664 C123.71464299 431.3329247 127.94731274 427.95117687 132.15185547 424.53369141 C134.21044922 422.90478516 134.21044922 422.90478516 137.21044922 420.90478516 C137.21044922 420.24478516 137.21044922 419.58478516 137.21044922 418.90478516 C137.74669922 418.69853516 138.28294922 418.49228516 138.83544922 418.27978516 C142.1302293 416.3722809 144.8040855 413.85659132 147.21044922 410.90478516 C147.21044922 410.24478516 147.21044922 409.58478516 147.21044922 408.90478516 C147.87044922 408.90478516 148.53044922 408.90478516 149.21044922 408.90478516 C149.21044922 408.24478516 149.21044922 407.58478516 149.21044922 406.90478516 C149.87044922 406.90478516 150.53044922 406.90478516 151.21044922 406.90478516 C154.4184233 403.41450936 157.28529254 399.63350246 160.21044922 395.90478516 C161.16371094 394.69628906 161.16371094 394.69628906 162.13623047 393.46337891 C165.13271993 390.05130219 165.13271993 390.05130219 166.21044922 385.90478516 C166.87044922 385.90478516 167.53044922 385.90478516 168.21044922 385.90478516 C170.41183582 382.10051023 170.41183582 382.10051023 171.21044922 377.90478516 C171.87044922 377.90478516 172.53044922 377.90478516 173.21044922 377.90478516 C173.46439453 377.22931641 173.71833984 376.55384766 173.97998047 375.85791016 C174.49625 374.51986328 174.49625 374.51986328 175.02294922 373.15478516 C175.35939453 372.27306641 175.69583984 371.39134766 176.04248047 370.48291016 C177.21044922 367.90478516 177.21044922 367.90478516 178.72607422 365.93212891 C180.53714863 363.45858253 181.25609769 361.1454672 182.14794922 358.21728516 C183.30483753 354.54350242 184.52001267 351.14287109 186.27294922 347.71728516 C189.44398647 340.93825671 190.05574207 333.23018844 191.21044922 325.90478516 C191.3856179 325.17245824 191.56078657 324.44013132 191.74126339 323.68561268 C192.36968046 319.96103413 192.34470767 316.28569858 192.33070374 312.5209198 C192.33155816 311.67951944 192.33241259 310.83811908 192.3332929 309.97122175 C192.33493914 307.15372574 192.32944032 304.33628935 192.32397461 301.51879883 C192.32369253 299.49838258 192.32385088 297.47796623 192.32441711 295.45755005 C192.32470427 289.97247491 192.31882074 284.48742159 192.31184316 279.00235152 C192.30559601 273.27014892 192.30500474 267.53794583 192.30381775 261.80574036 C192.30070846 250.95090806 192.29250046 240.09608583 192.28246826 229.24125797 C192.27129467 216.88345829 192.26579353 204.52565814 192.26077282 192.16785467 C192.25031753 166.74682592 192.23272584 141.3258061 192.21044922 115.90478516 C191.28844727 115.59847168 190.36644531 115.2921582 189.41650391 114.9765625 C181.96572908 112.48578414 174.53787534 109.8983728 167.27294922 106.90478516 C162.30583474 104.86976334 157.23090876 103.20740019 152.12280273 101.56689453 C147.31254109 100.00687703 147.31254109 100.00687703 146.21044922 98.90478516 C144.61653058 98.50703133 143.00956697 98.16083332 141.39794922 97.84228516 C140.52525391 97.66568359 139.65255859 97.48908203 138.75341797 97.30712891 C135.98107359 96.80060235 135.98107359 96.80060235 132.21044922 96.90478516 C132.21044922 96.24478516 132.21044922 95.58478516 132.21044922 94.90478516 C128.6173206 92.93594756 125.22963592 92.21068036 121.23388672 91.46728516 C119.21044922 90.90478516 119.21044922 90.90478516 117.21044922 88.90478516 C114.68264058 88.30511205 112.20212171 87.79051041 109.64794922 87.34228516 C102.33038165 86.02471759 102.33038165 86.02471759 101.21044922 84.90478516 C99.54427807 84.86414684 97.87656827 84.86206415 96.21044922 84.90478516 C96.21044922 84.24478516 96.21044922 83.58478516 96.21044922 82.90478516 C94.56044922 82.90478516 92.91044922 82.90478516 91.21044922 82.90478516 C91.21044922 82.24478516 91.21044922 81.58478516 91.21044922 80.90478516 C83.93146331 78.62503917 76.66640701 76.43587305 69.25732422 74.61572266 C67.21044922 73.90478516 67.21044922 73.90478516 66.21044922 71.90478516 C64.19101885 71.29016982 64.19101885 71.29016982 61.83544922 70.90478516 C58.53519303 70.30278403 57.09635949 69.82872534 54.21044922 67.90478516 C52.49600033 67.46739819 50.76377138 67.09629828 49.02294922 66.77978516 C48.12189453 66.61220703 47.22083984 66.44462891 46.29248047 66.27197266 C45.60541016 66.15080078 44.91833984 66.02962891 44.21044922 65.90478516 C44.21044922 65.24478516 44.21044922 64.58478516 44.21044922 63.90478516 C40.91044922 63.57478516 37.61044922 63.24478516 34.21044922 62.90478516 C34.21044922 62.24478516 34.21044922 61.58478516 34.21044922 60.90478516 C33.14826172 60.65083984 32.08607422 60.39689453 30.99169922 60.13525391 C18.12238018 57.01417393 18.12238018 57.01417393 13.64794922 55.21728516 C10.03922704 53.83940942 7.02739396 53.30238357 3.21044922 52.90478516 C3.21044922 52.24478516 3.21044922 51.58478516 3.21044922 50.90478516 C-4.60078892 47.47683173 -13.73223921 46.70059846 -21.78955078 49.90478516 Z " fill="#48845D" transform="translate(314.78955078125,55.09521484375)"/>
<path d="M0 0 C6.60769737 -0.60931636 10.94367779 -0.11218369 16.50390625 3.61328125 C18.82815217 5.76760841 18.98957765 7.88714079 19.2734375 10.9609375 C19.30695313 12.08757812 19.34046875 13.21421875 19.375 14.375 C19.42398437 15.49648437 19.47296875 16.61796875 19.5234375 17.7734375 C18.83059743 22.0442278 17.13783433 23.04391702 14 26 C12.91937781 27.07495168 11.84276375 28.15394228 10.76942253 29.23616409 C10.17610693 29.83071309 9.58279133 30.42526209 8.97149646 31.03782773 C8.33442772 31.67626072 7.69735897 32.3146937 7.04098511 32.97247314 C5.61057196 34.40581934 4.18015167 35.83915841 2.74972534 37.27249146 C1.98925777 38.03450993 1.22879021 38.7965284 0.44527817 39.58163834 C-16.52254901 56.58373831 -33.49548148 73.58073442 -50.47201247 90.57414313 C-52.97796197 93.08259362 -55.48386759 95.59108795 -57.98974609 98.09960938 C-58.48855494 98.59894284 -58.98736378 99.0982763 -59.50128804 99.61274108 C-67.59781861 107.71799528 -75.69081158 115.82677301 -83.7825277 123.93683329 C-92.0925057 132.26549289 -100.40625823 140.59037055 -108.72354972 148.91172671 C-113.39252184 153.58331069 -118.05970482 158.25665167 -122.7227211 162.93418121 C-127.10308342 167.32806951 -131.48806262 171.7172954 -135.87670135 176.10291672 C-137.48976051 177.71652812 -139.10109408 179.33186655 -140.71060562 180.94901657 C-142.90082205 183.14912081 -145.09704899 185.34304049 -147.29495239 187.53546143 C-147.93648258 188.1828173 -148.57801277 188.83017317 -149.23898327 189.49714589 C-150.12113344 190.37332291 -150.12113344 190.37332291 -151.02110481 191.26720047 C-151.78084671 192.02808153 -151.78084671 192.02808153 -152.55593693 192.80433393 C-155.80681649 195.49602135 -159.65377895 195.3409117 -163.6640625 195.26953125 C-170.26434414 194.50796029 -173.8589063 190.30241329 -177.84375 185.484375 C-180.62768929 182.27679277 -183.61043343 179.3021493 -186.625 176.3125 C-187.17559082 175.76601807 -187.72618164 175.21953613 -188.29345703 174.65649414 C-189.36307238 173.59670803 -190.43337116 172.53761118 -191.50439453 171.47924805 C-194.64574271 168.37225677 -197.76295148 165.24166368 -200.8671875 162.09765625 C-205.57481884 157.34122109 -210.24469622 152.68410627 -215.41796875 148.4296875 C-217.98703305 146.10801457 -220.1448623 143.44049551 -222.3828125 140.8046875 C-224.04072435 138.85491383 -224.04072435 138.85491383 -226.5 137 C-229.49432678 134.60453858 -231.80912062 131.874057 -234.2890625 128.9609375 C-235.75657001 127.27899966 -237.26145002 125.72643496 -238.875 124.1875 C-241 122 -241 122 -242 119 C-244.01508358 118.26676204 -244.01508358 118.26676204 -246 118 C-246 117.34 -246 116.68 -246 116 C-246.5775 115.773125 -247.155 115.54625 -247.75 115.3125 C-250.59591381 113.65238361 -251.99841921 111.60812043 -254 109 C-256.57824349 106.3092677 -259.22193301 103.77586608 -262.078125 101.38671875 C-262.59890625 100.94263672 -263.1196875 100.49855469 -263.65625 100.04101562 C-264.72214454 99.13578901 -265.80054749 98.24509577 -266.890625 97.36914062 C-269.8784642 94.77345532 -271.36446866 92.74698308 -271.9375 88.890625 C-272.01537654 84.04281038 -271.36269666 82.13471916 -269 78 C-267.515 77.505 -267.515 77.505 -266 77 C-266 76.34 -266 75.68 -266 75 C-262.36804504 72.57869669 -260.61650652 72.78977215 -256.3125 72.875 C-255.13300781 72.89304687 -253.95351562 72.91109375 -252.73828125 72.9296875 C-251.83464844 72.95289063 -250.93101562 72.97609375 -250 73 C-249.9175 73.61875 -249.835 74.2375 -249.75 74.875 C-249.20574258 77.14609319 -249.20574258 77.14609319 -247.15625 78.078125 C-246.4446875 78.38234375 -245.733125 78.6865625 -245 79 C-241.34507913 81.66103888 -238.4365002 84.33863606 -235.9375 88.125 C-234.12395678 91.20895572 -234.12395678 91.20895572 -230.8125 93.125 C-228 95 -228 95 -227.375 97.125 C-227.189375 98.053125 -227.189375 98.053125 -227 99 C-225.67998072 99.69265528 -224.34421127 100.35554808 -223 101 C-218.23244991 104.4895355 -214.42445341 108.71119932 -210.6171875 113.1953125 C-208.95927565 115.14508617 -208.95927565 115.14508617 -206.5 117 C-203.50215344 119.39827725 -201.18525843 122.13654859 -198.6953125 125.046875 C-196.5768906 127.48745323 -194.31483967 129.74607716 -192 132 C-191.175 132.845625 -190.35 133.69125 -189.5 134.5625 C-187.07084467 137.02015888 -187.07084467 137.02015888 -184.4375 139 C-182 141 -182 141 -180.0625 143.5625 C-177.66667051 146.39393486 -175.29625658 147.38849678 -172 149 C-171.67 149.99 -171.34 150.98 -171 152 C-166.77253377 156.22746623 -164.14564694 157.63126118 -158 158 C-158 157.34 -158 156.68 -158 156 C-156.05872155 154.41988963 -154.01023561 153.0464337 -151.9453125 151.6328125 C-149.8461431 149.87085906 -149.14742266 148.44685431 -148 146 C-146.56131253 144.79019463 -145.1189939 143.58390637 -143.64453125 142.41796875 C-141.30636284 140.4019233 -139.42195094 138.08108683 -137.44921875 135.71484375 C-135.41799993 133.31132606 -133.3209604 131.12754703 -131 129 C-130.34 129 -129.68 129 -129 129 C-129 128.34 -129 127.68 -129 127 C-127.625 125.375 -127.625 125.375 -126 124 C-125.34 124 -124.68 124 -124 124 C-124 123.34 -124 122.68 -124 122 C-122.42578125 120.44921875 -122.42578125 120.44921875 -120.3125 118.6875 C-116.28120842 115.2534368 -112.4130771 111.85161826 -109.1875 107.625 C-106.68756671 104.62508005 -103.9141136 102.22860274 -100.953125 99.6953125 C-98.51254677 97.5768906 -96.25392284 95.31483967 -94 93 C-89 88 -89 88 -87.1171875 86.15234375 C-83.31098537 82.3967945 -79.69508554 78.59852946 -76.32421875 74.4453125 C-75 73 -75 73 -72 71 C-71.01 71 -70.02 71 -69 71 C-69 70.34 -69 69.68 -69 69 C-68.34 69 -67.68 69 -67 69 C-66.85304688 68.11634766 -66.85304688 68.11634766 -66.703125 67.21484375 C-65.86052189 64.56064397 -64.76659256 63.46072734 -62.75 61.5625 C-62.11707031 60.95535156 -61.48414063 60.34820312 -60.83203125 59.72265625 C-60.22746094 59.15417969 -59.62289062 58.58570313 -59 58 C-56.23926858 55.30660349 -53.64218108 52.59437227 -51.1875 49.625 C-47.09288551 44.78111327 -42.3147888 40.7360916 -37.25 36.9375 C-34.83468564 35.04901086 -34.83468564 35.04901086 -33.1875 32.125 C-30.79118857 28.70169796 -28.38095457 26.95097156 -25.015625 24.5703125 C-22.4174945 22.54618758 -20.49930614 20.20730839 -18.43359375 17.66015625 C-16.21571549 15.09176861 -13.63784692 13.1327273 -11 11 C-8.54987113 8.60820753 -6.1653066 6.17475269 -3.8125 3.6875 C-2 2 -2 2 0 2 C0 1.34 0 0.68 0 0 Z " fill="#F8F9F9" transform="translate(432,240)"/>
<path d="M0 0 C-0.33 0.99 -0.66 1.98 -1 3 C-3.046875 3.73828125 -3.046875 3.73828125 -5.75 4.3125 C-10.17698756 5.39793598 -13.98204301 6.84773357 -18.0625 8.875 C-24.2015288 11.84478289 -30.39449395 13.67767364 -36.99633789 15.35107422 C-40.44674437 16.23416676 -43.0078143 17.00520953 -46 19 C-47.6562488 19.49687464 -49.31452143 19.98846375 -50.984375 20.4375 C-53.14018848 21.03912237 -55.25321884 21.72529374 -57.375 22.4375 C-58.13039062 22.69015625 -58.88578125 22.9428125 -59.6640625 23.203125 C-61.2464297 23.7429292 -62.82451297 24.2954281 -64.3984375 24.859375 C-68.37879007 26.26109385 -71.7102104 27.41514093 -76 27 C-76 27.66 -76 28.32 -76 29 C-78.64 29.66 -81.28 30.32 -84 31 C-84 31.66 -84 32.32 -84 33 C-85.98 33 -87.96 33 -90 33 C-90 112.53 -90 192.06 -90 274 C-92.69926576 271.30073424 -92.24833236 269.19909537 -92.276811 265.53128445 C-92.2737138 264.61379292 -92.2706166 263.69630139 -92.26742554 262.75100708 C-92.27195665 261.78023503 -92.27648776 260.80946298 -92.28115618 259.8092736 C-92.29388061 256.53572472 -92.29217465 253.2623405 -92.29052734 249.98876953 C-92.29650758 247.65016463 -92.30331195 245.31156172 -92.31088257 242.97296143 C-92.32860125 236.60523527 -92.33324042 230.23756281 -92.33451414 223.8698144 C-92.33617067 219.2296637 -92.34196434 214.58952508 -92.3481871 209.94937863 C-92.36480637 197.47688763 -92.37227048 185.00442522 -92.37084763 172.53192355 C-92.37076772 171.8232003 -92.3706878 171.11447705 -92.37060547 170.38427734 C-92.37052371 169.67469127 -92.37044195 168.9651052 -92.37035771 168.23401652 C-92.36954472 156.7328391 -92.38868367 145.23179261 -92.4168822 133.73065306 C-92.44559048 121.92871156 -92.45942362 110.12683396 -92.45769465 98.32485664 C-92.45703001 91.69599467 -92.46294137 85.0672534 -92.48405075 78.43841934 C-92.50335681 72.20531522 -92.50360992 65.97250163 -92.48901749 59.73938751 C-92.48691878 57.4480052 -92.49169297 55.15660506 -92.5037384 52.86525345 C-92.51908661 49.74414304 -92.50995155 46.62404747 -92.49447632 43.50296021 C-92.50476344 42.58993012 -92.51505057 41.67690003 -92.52564943 40.73620236 C-92.45839676 34.62499814 -92.45839676 34.62499814 -90.16300392 31.49535942 C-87.31334846 29.52529404 -84.49906067 28.42928396 -81.234375 27.265625 C-80.57300537 27.02671539 -79.91163574 26.78780579 -79.23022461 26.54165649 C-77.07402813 25.7663846 -74.91236437 25.00788022 -72.75 24.25 C-71.24356708 23.71309773 -69.73738411 23.17549367 -68.23144531 22.63720703 C-57.90143087 18.95932909 -47.52157568 15.4377839 -37.1015625 12.0234375 C-32.43493618 10.48875415 -27.78892528 8.90055536 -23.1484375 7.2890625 C-22.48090454 7.05742401 -21.81337158 6.82578552 -21.12561035 6.58712769 C-17.83711704 5.44499924 -14.55013998 4.29868215 -11.26464844 3.14794922 C-10.08676758 2.73818848 -8.90888672 2.32842773 -7.6953125 1.90625 C-6.64359863 1.53822266 -5.59188477 1.17019531 -4.50830078 0.79101562 C-2 0 -2 0 0 0 Z " fill="#152B20" transform="translate(153,105)"/>
<path d="M0 0 C0.33 0 0.66 0 1 0 C1.0457293 30.0133928 1.08107289 60.0267844 1.10213066 90.0402044 C1.10463176 93.59206992 1.10722043 97.14393537 1.10986328 100.69580078 C1.1103879 101.40284551 1.11091252 102.10989024 1.11145304 102.83836056 C1.12013061 114.25256343 1.13588583 125.66674594 1.15430559 137.08093677 C1.17307863 148.81281117 1.18413229 160.54467497 1.18817699 172.27656376 C1.19077485 178.8578059 1.19684242 185.43900201 1.21146011 192.02022934 C1.22513315 198.22700927 1.22920316 204.43372463 1.22621536 210.64051819 C1.22676121 212.90666684 1.23068027 215.17281787 1.23841095 217.4389534 C1.29100809 233.66632404 1.20515571 250.08789414 -3.3125 265.8125 C-3.5297876 266.60035889 -3.7470752 267.38821777 -3.97094727 268.19995117 C-5.88890477 274.97673436 -8.26472941 281.50980173 -11 288 C-11.49757813 289.21945312 -11.99515625 290.43890625 -12.5078125 291.6953125 C-14.91922965 297.5168297 -17.37833913 302.83621257 -21 308 C-22.24546405 305.50907189 -21.7767578 304.58919267 -21 302 C-20.34 302 -19.68 302 -19 302 C-19 301.01 -19 300.02 -19 299 C-18.34 299 -17.68 299 -17 299 C-16.84144531 297.45505859 -16.84144531 297.45505859 -16.6796875 295.87890625 C-16.00238651 292.01361957 -14.92042683 289.39883282 -13.125 285.9375 C-10.18188159 279.86070155 -8.74651762 274.32629089 -7.54296875 267.703125 C-7 265 -7 265 -6 264 C-5.64662129 262.53006335 -5.34292941 261.04808057 -5.0625 259.5625 C-4.88976562 258.66015625 -4.71703125 257.7578125 -4.5390625 256.828125 C-4.27222656 255.42820312 -4.27222656 255.42820312 -4 254 C-3.49086397 251.50597131 -2.97874353 249.01258224 -2.46484375 246.51953125 C-1.26272556 240.00384863 -0.84894599 233.7659672 -0.84178162 227.16078186 C-0.83684364 226.18699898 -0.83190566 225.21321609 -0.82681805 224.20992464 C-0.8114955 220.95643905 -0.80309665 217.70297311 -0.79467773 214.44946289 C-0.78509509 212.11348295 -0.77508478 209.77750474 -0.76467896 207.44152832 C-0.73766572 201.10537907 -0.71663675 194.7692224 -0.69667697 188.43304753 C-0.67701275 182.48053594 -0.65287265 176.52804391 -0.62875474 170.57554894 C-0.58114258 158.7885785 -0.53786121 147.00159632 -0.49731445 135.21459961 C-0.45792702 123.7673247 -0.41649306 112.3200602 -0.37231445 100.87280273 C-0.36959018 100.16672385 -0.36686591 99.46064496 -0.36405908 98.73316974 C-0.35037907 95.19083917 -0.3366589 91.64850875 -0.32291877 88.1061784 C-0.20905421 58.73747432 -0.10229514 29.36874665 0 0 Z " fill="#1A1C1B" transform="translate(548,137)"/>
<path d="M0 0 C0.33 0 0.66 0 1 0 C1.00423194 1.23668647 1.00846388 2.47337294 1.01282406 3.74753475 C1.11370331 33.16577046 1.21945056 62.58398455 1.33111694 92.00218108 C1.34488498 95.63044155 1.3586123 99.25870217 1.37231445 102.88696289 C1.37504276 103.609223 1.37777106 104.33148312 1.38058204 105.0756299 C1.42454472 116.73945036 1.46521677 128.40328006 1.50465261 140.06711661 C1.54525217 152.05325427 1.58943463 164.03937494 1.63687855 176.02548748 C1.66339595 182.75031261 1.68819252 189.4751345 1.70907402 196.19997978 C1.72881468 202.54054639 1.75300756 208.88108102 1.78049088 215.22161865 C1.7897699 217.53816706 1.79747698 219.85472244 1.80341911 222.17128181 C1.83683158 234.81693835 2.06921884 247.38602624 3 260 C3.66 260 4.32 260 5 260 C5.20625 261.299375 5.4125 262.59875 5.625 263.9375 C6.77948716 269.86273556 8.82206229 275.39578189 10.96728516 281.02124023 C12.38067637 284.81749204 13.37268608 287.87614748 13 292 C9.59273008 288.59273008 8.62665813 283.86370332 7.0625 279.375 C6.71509766 278.42109375 6.36769531 277.4671875 6.00976562 276.484375 C0.12165946 259.67388735 -0.42569657 243.77036099 -0.34057617 226.14257812 C-0.33972847 223.66734325 -0.34020783 221.19210761 -0.34190369 218.71687317 C-0.34258294 213.41923818 -0.33417239 208.12174135 -0.31719017 202.82414246 C-0.29265396 195.16503074 -0.28498008 187.50597241 -0.2812262 179.84682566 C-0.27468444 167.41591957 -0.25478558 154.98507303 -0.22631836 142.55419922 C-0.19871851 130.48942357 -0.17751406 118.42466419 -0.16479492 106.35986328 C-0.16400675 105.61433097 -0.16321858 104.86879865 -0.16240653 104.10067445 C-0.15849099 100.36000282 -0.15469997 96.61933107 -0.15097082 92.87865925 C-0.1199459 61.91906288 -0.06694738 30.95954054 0 0 Z " fill="#447D59" transform="translate(63,138)"/>
<path d="M0 0 C5.20971904 0.66365848 9.84438789 2.21614105 14.75 4 C15.90048828 4.40992188 15.90048828 4.40992188 17.07421875 4.828125 C22.66537267 6.83268634 22.66537267 6.83268634 25 8 C25 86.54 25 165.08 25 246 C24.67 246 24.34 246 24 246 C24 168.12 24 90.24 24 10 C21.03 9.505 21.03 9.505 18 9 C16.37218505 8.65900512 14.7467896 8.30608855 13.125 7.9375 C12.34382812 7.76089844 11.56265625 7.58429688 10.7578125 7.40234375 C10.17773438 7.26957031 9.59765625 7.13679687 9 7 C9 6.34 9 5.68 9 5 C7.6078125 5.1546875 7.6078125 5.1546875 6.1875 5.3125 C5.135625 5.209375 4.08375 5.10625 3 5 C1.125 2.5 1.125 2.5 0 0 Z " fill="#376247" transform="translate(523,128)"/>
<path d="M0 0 C-0.33 0.99 -0.66 1.98 -1 3 C-3.046875 3.73828125 -3.046875 3.73828125 -5.75 4.3125 C-10.17698756 5.39793598 -13.98204301 6.84773357 -18.0625 8.875 C-24.2015288 11.84478289 -30.39449395 13.67767364 -36.99633789 15.35107422 C-40.44674437 16.23416676 -43.0078143 17.00520953 -46 19 C-47.6562488 19.49687464 -49.31452143 19.98846375 -50.984375 20.4375 C-53.14018848 21.03912237 -55.25321884 21.72529374 -57.375 22.4375 C-58.13039063 22.69015625 -58.88578125 22.9428125 -59.6640625 23.203125 C-61.2464297 23.7429292 -62.82451297 24.2954281 -64.3984375 24.859375 C-68.37879007 26.26109385 -71.7102104 27.41514093 -76 27 C-76 27.66 -76 28.32 -76 29 C-77.57914015 29.53341184 -79.16354387 30.05125763 -80.75 30.5625 C-81.63171875 30.85253906 -82.5134375 31.14257812 -83.421875 31.44140625 C-86.13018796 32.02820739 -87.39972846 31.75639869 -90 31 C-77.51179538 26.02259204 -64.92613871 21.47930639 -52.1875 17.1875 C-49.49596898 16.27613915 -46.80487412 15.36349876 -44.11381531 14.45074463 C-42.3217448 13.84298568 -40.52951988 13.23568184 -38.73713684 12.62884521 C-33.13734839 10.73151641 -27.54558651 8.81251403 -21.9609375 6.87109375 C-21.27673233 6.63349838 -20.59252716 6.39590302 -19.8875885 6.15110779 C-16.72545319 5.05250558 -13.56452896 3.95065529 -10.4050293 2.84448242 C-8.76787964 2.27564331 -8.76787964 2.27564331 -7.09765625 1.6953125 C-6.15414307 1.36547363 -5.21062988 1.03563477 -4.23852539 0.69580078 C-2 0 -2 0 0 0 Z " fill="#112013" transform="translate(153,105)"/>
<path d="M0 0 C-6.3098597 6.3098597 -18.55620142 8.66190407 -26.88037109 11.50073242 C-30.60450714 12.776899 -34.28010181 14.07595149 -37.890625 15.6484375 C-41.21162262 17.09198672 -44.51580991 18.02198173 -48 19 C-49.31500857 19.53554784 -50.62744801 20.07743921 -51.9375 20.625 C-58.22099373 22.98131015 -62.96113192 22.65558987 -69 20 C-70.34050052 19.34786461 -71.67661368 18.68620031 -73 18 C-70.12977013 16.56488506 -68.20823355 17.65267074 -65.265625 18.52734375 C-59.62980951 19.70309147 -55.39286295 18.68417739 -50.0625 16.6875 C-48.21591797 16.00107422 -48.21591797 16.00107422 -46.33203125 15.30078125 C-43.94384893 14.36846623 -41.5895789 13.41915574 -39.25 12.375 C-35.63971158 10.84757028 -32.01006831 9.78382312 -28.234375 8.74609375 C-25.75668191 8.02745178 -25.75668191 8.02745178 -23 6 C-20.51953125 5.5859375 -20.51953125 5.5859375 -17.8125 5.375 C-16.91144531 5.30023437 -16.01039063 5.22546875 -15.08203125 5.1484375 C-14.39496094 5.09945312 -13.70789063 5.05046875 -13 5 C-13 4.34 -13 3.68 -13 3 C-4.57142857 -0.42857143 -4.57142857 -0.42857143 0 0 Z " fill="#1D3325" transform="translate(365,572)"/>
<path d="M0 0 C1.77276158 0.40838487 3.5430922 0.82732063 5.3125 1.25 C6.29863281 1.48203125 7.28476562 1.7140625 8.30078125 1.953125 C13.30382614 3.36898142 18.13079368 5.18287623 23 7 C38.24087404 12.62784733 53.56033879 17.94154897 69 23 C69 23.33 69 23.66 69 24 C63.78427953 24.24552374 59.98739864 23.55638111 55.125 21.6875 C53.90941406 21.22988281 52.69382812 20.77226563 51.44140625 20.30078125 C50.30574219 19.87152344 49.17007813 19.44226563 48 19 C46.35769082 18.44774038 44.71238173 17.90420735 43.0625 17.375 C39.27261663 16.13264412 35.66640731 14.57131742 32 13 C27.38362813 11.2591168 22.86087629 9.92163162 18 9.0625 C11.46655504 7.85147204 5.89024782 4.95833074 0 2 C0 1.34 0 0.68 0 0 Z " fill="#142519" transform="translate(344,66)"/>
<path d="M0 0 C2.70923048 1.09775555 5.45606604 1.99541223 8.23730469 2.89501953 C9.2853125 3.23726562 10.33332031 3.57951172 11.41308594 3.93212891 C13.59428848 4.64121707 15.77660726 5.34687972 17.95996094 6.04931641 C19.52037109 6.56075195 19.52037109 6.56075195 21.11230469 7.08251953 C22.52842041 7.5409021 22.52842041 7.5409021 23.97314453 8.00854492 C26.27636719 8.92236328 26.27636719 8.92236328 28.27636719 10.92236328 C22.8377249 10.490725 18.13041948 9.71325297 13.00292969 7.88330078 C9.38885286 6.6095717 5.74295998 5.45036786 2.08886719 4.29736328 C1.41138428 4.07918945 0.73390137 3.86101563 0.03588867 3.63623047 C-6.73929106 1.49836244 -11.04341151 0.3961922 -17.82128906 2.88720703 C-21.66824823 4.25927188 -25.56120924 5.43992498 -29.47363281 6.60986328 C-30.20686768 6.83625488 -30.94010254 7.06264648 -31.69555664 7.29589844 C-35.47685231 8.42488837 -38.72990951 9.2132447 -42.72363281 8.92236328 C-37.9196263 5.71969228 -32.46368315 4.19656077 -27.03613281 2.29736328 C-25.87662109 1.87712891 -24.71710938 1.45689453 -23.52246094 1.02392578 C-14.82424771 -2.02217959 -8.8265092 -3.67519442 0 0 Z " fill="#172C1B" transform="translate(314.7236328125,55.07763671875)"/>
<path d="M0 0 C4.48993869 0.58652352 8.22543184 1.7643538 12.375 3.5625 C13.43460938 4.01753906 14.49421875 4.47257813 15.5859375 4.94140625 C16.38257813 5.29074219 17.17921875 5.64007812 18 6 C18 6.66 18 7.32 18 8 C20.13221382 8.53923737 22.2644422 9.0595745 24.41015625 9.54296875 C30.69206993 11.06950153 35.83244669 13.35222638 41.421875 16.578125 C44.84905303 18.46826561 48.31070364 19.70551005 52 21 C53.3465266 21.63960014 54.68922893 22.289999 56 23 C55.67 23.66 55.34 24.32 55 25 C48.25231593 22.89208473 41.77264085 20.56226075 35.37890625 17.546875 C31.71380922 15.86898087 28.01030803 14.304366 24.29541016 12.74072266 C15.94079934 9.21938189 7.79728822 5.65646018 0 1 C0 0.67 0 0.34 0 0 Z " fill="#15261B" transform="translate(209,555)"/>
<path d="M0 0 C0.33 0.99 0.66 1.98 1 3 C1.66 3 2.32 3 3 3 C4.81242323 7.0188515 6.33501617 10.61110675 7 15 C7.66 15 8.32 15 9 15 C10.72264494 18.29549466 12.29445932 21.33118845 13 25 C13.66 25 14.32 25 15 25 C18 29.38461538 18 29.38461538 18 32 C18.66 32 19.32 32 20 32 C20.33 33.65 20.66 35.3 21 37 C21.99 37 22.98 37 24 37 C24.33 38.32 24.66 39.64 25 41 C25.66 41 26.32 41 27 41 C27.33 42.32 27.66 43.64 28 45 C28.66 45 29.32 45 30 45 C30.33 46.65 30.66 48.3 31 50 C21.72317698 41.30297842 14.84127011 30.62611881 8 20 C7.38511719 19.05382812 6.77023438 18.10765625 6.13671875 17.1328125 C2.88240523 11.94852148 0.62607934 6.90523548 -1 1 C-0.67 0.67 -0.34 0.34 0 0 Z " fill="#16271B" transform="translate(77,429)"/>
<path d="M0 0 C0.99 0.33 1.98 0.66 3 1 C-2.76476479 8.26418594 -8.80785077 15.14414076 -15.13671875 21.9140625 C-17.60765071 24.56049838 -20.00029498 27.26659193 -22.375 30 C-25.36589969 33.38345527 -28.36338667 36.31583302 -32 39 C-32.66 39 -33.32 39 -34 39 C-33.45418801 35.20450741 -31.94590705 33.69020705 -29.0625 31.25 C-28.35222656 30.63640625 -27.64195312 30.0228125 -26.91015625 29.390625 C-25 28 -25 28 -23 28 C-22.731875 27.401875 -22.46375 26.80375 -22.1875 26.1875 C-21.00082594 24.00152146 -19.90400887 22.58667406 -18 21 C-17.34 21 -16.68 21 -16 21 C-15.5359375 20.071875 -15.5359375 20.071875 -15.0625 19.125 C-14.375 17.75 -13.6875 16.375 -13 15 C-12.34 15 -11.68 15 -11 15 C-10.731875 14.4225 -10.46375 13.845 -10.1875 13.25 C-8.97070811 10.94449957 -7.69666121 8.97943808 -6 7 C-5.34 7 -4.68 7 -4 7 C-3.71125 6.401875 -3.4225 5.80375 -3.125 5.1875 C-2 3 -2 3 0 0 Z " fill="#15291A" transform="translate(511,465)"/>
<path d="M0 0 C5.20971904 0.66365848 9.84438789 2.21614105 14.75 4 C15.90048828 4.40992188 15.90048828 4.40992188 17.07421875 4.828125 C22.66537267 6.83268634 22.66537267 6.83268634 25 8 C25 19.22 25 30.44 25 42 C24.67 42 24.34 42 24 42 C24 31.44 24 20.88 24 10 C21.03 9.505 21.03 9.505 18 9 C16.37218505 8.65900512 14.7467896 8.30608855 13.125 7.9375 C12.34382812 7.76089844 11.56265625 7.58429688 10.7578125 7.40234375 C10.17773438 7.26957031 9.59765625 7.13679687 9 7 C9 6.34 9 5.68 9 5 C7.6078125 5.1546875 7.6078125 5.1546875 6.1875 5.3125 C5.135625 5.209375 4.08375 5.10625 3 5 C1.125 2.5 1.125 2.5 0 0 Z " fill="#32573E" transform="translate(523,128)"/>
<path d="M0 0 C-2.43298015 2.43298015 -4.12676754 2.7227259 -7.4375 3.5625 C-10.33304709 4.30662861 -13.16274665 5.05424888 -16 6 C-16 6.66 -16 7.32 -16 8 C-16.76183594 8.18175781 -17.52367187 8.36351563 -18.30859375 8.55078125 C-23.22518667 9.74770462 -28.05344567 10.95843182 -32.8125 12.6875 C-36.71687819 14.05545732 -39.88277054 14.26280188 -44 14 C-41.21941142 12.14627428 -39.40602633 11.42991717 -36.25 10.5625 C-32.66536364 9.57616138 -29.35336622 8.30299504 -25.94970703 6.80932617 C-22.30801303 5.29765379 -18.55707928 4.10364184 -14.8125 2.875 C-14.01908203 2.61074219 -13.22566406 2.34648438 -12.40820312 2.07421875 C-2.44410056 -1.22205028 -2.44410056 -1.22205028 0 0 Z " fill="#132015" transform="translate(197,91)"/>
<path d="M0 0 C0.66 0 1.32 0 2 0 C2.33 5.61 2.66 11.22 3 17 C3.66 17 4.32 17 5 17 C5.20625 18.299375 5.4125 19.59875 5.625 20.9375 C6.77948716 26.86273556 8.82206229 32.39578189 10.96728516 38.02124023 C12.38067637 41.81749204 13.37268608 44.87614748 13 49 C3.80449287 39.80449287 -0.04014496 16.2981699 -0.0625 3.55859375 C-0.041875 2.38425781 -0.02125 1.20992188 0 0 Z " fill="#1A2F21" transform="translate(63,381)"/>
<path d="M0 0 C10.55808656 -0.55353075 10.55808656 -0.55353075 15 3 C14.34 3.33 13.68 3.66 13 4 C12.01 3.67 11.02 3.34 10 3 C8.10529184 2.9314505 6.2083166 2.91519628 4.3125 2.9375 C3.31863281 2.94652344 2.32476562 2.95554688 1.30078125 2.96484375 C0.54152344 2.97644531 -0.21773438 2.98804688 -1 3 C-1.26876953 3.59329102 -1.53753906 4.18658203 -1.81445312 4.79785156 C-3.00290732 7.00540033 -4.20742389 8.46542882 -5.96875 10.234375 C-6.82533203 11.09482422 -6.82533203 11.09482422 -7.69921875 11.97265625 C-8.59060547 12.85244141 -8.59060547 12.85244141 -9.5 13.75 C-10.09425781 14.35199219 -10.68851562 14.95398438 -11.30078125 15.57421875 C-11.87183594 16.14269531 -12.44289063 16.71117187 -13.03125 17.296875 C-13.55267578 17.81604492 -14.07410156 18.33521484 -14.61132812 18.87011719 C-16 20 -16 20 -18 20 C-18 20.66 -18 21.32 -18 22 C-19.32 22.33 -20.64 22.66 -22 23 C-22 22.34 -22 21.68 -22 21 C-20.4609375 19.51953125 -20.4609375 19.51953125 -18.375 17.8125 C-14.98023311 14.94554139 -12.14699321 11.98304715 -9.421875 8.48046875 C-8 7 -8 7 -5.953125 5.98828125 C-3.66617545 5.03223686 -3.66617545 5.03223686 -2 2 C-1.34 2 -0.68 2 0 2 C0 1.34 0 0.68 0 0 Z " fill="#C6D1CC" transform="translate(432,240)"/>
<path d="M0 0 C1.32 0.33 2.64 0.66 4 1 C-4.31612144 6.53729506 -12.64050833 11.99968975 -21.4375 16.75 C-22.06922119 17.09675781 -22.70094238 17.44351563 -23.35180664 17.80078125 C-24.86777188 18.6007055 -26.43086804 19.31017808 -28 20 C-28.66 19.67 -29.32 19.34 -30 19 C-27.82319011 15.73478517 -26.1484752 15.00239167 -22.69140625 13.37890625 C-18.41398867 11.18742815 -14.35815813 8.6259502 -10.28051758 6.08544922 C-5.40391204 3.09308695 -5.40391204 3.09308695 -2.85058594 2.50463867 C-2.23989258 2.33810791 -1.62919922 2.17157715 -1 2 C-0.67 1.34 -0.34 0.68 0 0 Z " fill="#1B2F1F" transform="translate(435,533)"/>
<path d="M0 0 C0.66 0.33 1.32 0.66 2 1 C1.34 2.32 0.68 3.64 0 5 C-0.66 5 -1.32 5 -2 5 C-2.24024902 5.5662207 -2.48049805 6.13244141 -2.72802734 6.71582031 C-4.26195111 9.47040587 -6.10726018 11.33249671 -8.3515625 13.546875 C-9.20234375 14.39121094 -10.053125 15.23554688 -10.9296875 16.10546875 C-11.81914062 16.97816406 -12.70859375 17.85085938 -13.625 18.75 C-14.5221875 19.63816406 -15.419375 20.52632813 -16.34375 21.44140625 C-18.55807004 23.63216969 -20.77692435 25.81812763 -23 28 C-23.99 27.67 -24.98 27.34 -26 27 C-25.01 25.515 -25.01 25.515 -24 24 C-23.34 24 -22.68 24 -22 24 C-22 23.34 -22 22.68 -22 22 C-20.625 20.375 -20.625 20.375 -19 19 C-18.34 19 -17.68 19 -17 19 C-17 18.34 -17 17.68 -17 17 C-15.42578125 15.44921875 -15.42578125 15.44921875 -13.3125 13.6875 C-8.36960076 9.47688213 -3.97444062 5.15205265 0 0 Z " fill="#C9D4CF" transform="translate(325,345)"/>
<path d="M0 0 C13.60895487 3.19810439 26.85028683 8.3184586 40 13 C36.61212823 13.96619216 34.99692658 13.90644759 31.6875 12.625 C28.70954782 11.53765562 26.37957758 10.91863313 23.1875 10.5 C20 10 20 10 18.125 8.5625 C15.32812019 6.50597073 12.696198 6.19706352 9.328125 5.5390625 C5.99101204 4.76637527 3.09701165 3.44966503 0 2 C0 1.34 0 0.68 0 0 Z " fill="#122215" transform="translate(483,114)"/>
<path d="M0 0 C0.66 0.33 1.32 0.66 2 1 C-3.36785114 6.05209519 -9.08166437 10.19796915 -15.265625 14.203125 C-17.96319147 15.92451435 -17.96319147 15.92451435 -20.234375 17.734375 C-22 19 -22 19 -24 19 C-22.6015209 15.5912072 -21.14993067 14.12606165 -18 12.25 C-17.29875 11.82203125 -16.5975 11.3940625 -15.875 10.953125 C-14 10 -14 10 -12 10 C-12 9.34 -12 8.68 -12 8 C-10.02559073 6.5368217 -8.06761129 5.19286936 -6 3.875 C-5.42765625 3.50246094 -4.8553125 3.12992188 -4.265625 2.74609375 C-2.84778218 1.82449592 -1.42439275 0.91144179 0 0 Z " fill="#152819" transform="translate(463,514)"/>
<path d="M0 0 C0 0.66 0 1.32 0 2 C-2.90600261 3.25664978 -4.79604584 4 -8 4 C-8 4.66 -8 5.32 -8 6 C-9.01320312 6.18175781 -9.01320312 6.18175781 -10.046875 6.3671875 C-10.93890625 6.53476563 -11.8309375 6.70234375 -12.75 6.875 C-13.63171875 7.03742188 -14.5134375 7.19984375 -15.421875 7.3671875 C-17.98882321 7.89652476 -17.98882321 7.89652476 -20.125 9.0625 C-22.76770017 10.38385008 -25.09383591 10.13209837 -28 10 C-24.94705289 7.45346591 -22.15437281 6.19663519 -18.375 5 C-17.323125 4.66484375 -16.27125 4.3296875 -15.1875 3.984375 C-14.135625 3.65953125 -13.08375 3.3346875 -12 3 C-10.5459375 2.54367188 -10.5459375 2.54367188 -9.0625 2.078125 C-2.31839623 0 -2.31839623 0 0 0 Z " fill="#182D1B" transform="translate(252,71)"/>
<path d="M0 0 C1.20114351 3.60343052 0.73357161 4.28723356 -0.73046875 7.67578125 C-1.12169922 8.58650391 -1.51292969 9.49722656 -1.91601562 10.43554688 C-2.33560547 11.38494141 -2.75519531 12.33433594 -3.1875 13.3125 C-3.58775391 14.25029297 -3.98800781 15.18808594 -4.40039062 16.15429688 C-6.55856668 21.11775201 -8.81079443 25.62309029 -12 30 C-13.24546405 27.50907189 -12.7767578 26.58919267 -12 24 C-11.34 24 -10.68 24 -10 24 C-10 23.01 -10 22.02 -10 21 C-9.34 21 -8.68 21 -8 21 C-7.86271484 19.49759766 -7.86271484 19.49759766 -7.72265625 17.96484375 C-7.11424347 13.7059543 -5.4484628 10.32558881 -3.4375 6.5625 C-3.10814453 5.92634766 -2.77878906 5.29019531 -2.43945312 4.63476562 C-1.63546752 3.08505424 -0.81902334 1.54181678 0 0 Z " fill="#142318" transform="translate(539,415)"/>
<path d="M0 0 C4.48993869 0.58652352 8.22543184 1.7643538 12.375 3.5625 C13.43460938 4.01753906 14.49421875 4.47257813 15.5859375 4.94140625 C16.38257813 5.29074219 17.17921875 5.64007812 18 6 C18 6.66 18 7.32 18 8 C18.8353125 8.1546875 18.8353125 8.1546875 19.6875 8.3125 C22.44176578 9.13133577 24.58727657 10.45853781 27 12 C26.01 12.495 26.01 12.495 25 13 C22.59915866 12.03366136 20.31975846 11.01005609 18 9.875 C17.33025146 9.5545874 16.66050293 9.2341748 15.97045898 8.90405273 C10.61610687 6.33244912 5.2902069 3.70111741 0 1 C0 0.67 0 0.34 0 0 Z " fill="#172B1B" transform="translate(209,555)"/>
<path d="M0 0 C0 0.66 0 1.32 0 2 C-20.59804987 10.28506617 -20.59804987 10.28506617 -29 10 C-24.52689988 7.01793325 -19.56201724 5.61988536 -14.5 3.875 C-12.91251953 3.31619141 -12.91251953 3.31619141 -11.29296875 2.74609375 C-10.27847656 2.39417969 -9.26398438 2.04226562 -8.21875 1.6796875 C-7.28998047 1.35726074 -6.36121094 1.03483398 -5.40429688 0.70263672 C-3 0 -3 0 0 0 Z " fill="#152517" transform="translate(301,54)"/>
<path d="M0 0 C0.33 0 0.66 0 1 0 C1.45364693 5.55717489 0.58568908 10.43619164 -0.8125 15.8125 C-0.97782227 16.47064697 -1.14314453 17.12879395 -1.31347656 17.80688477 C-2.26330894 21.28736755 -3.09193012 23.75853639 -6 26 C-5.855625 25.154375 -5.71125 24.30875 -5.5625 23.4375 C-5.16806729 21.02707791 -4.81760562 18.60924286 -4.5 16.1875 C-4 13 -4 13 -3 12 C-2.63021574 10.36197128 -2.30331217 8.71412956 -2 7.0625 C-1.1070615 2.21412301 -1.1070615 2.21412301 0 0 Z " fill="#132619" transform="translate(545,389)"/>
<path d="M0 0 C6.85921925 1.61191652 13.46207289 3.35968328 20 6 C20 6.99 20 7.98 20 9 C12.55031652 8.36598438 6.60368416 5.32420218 0 2 C0 1.34 0 0.68 0 0 Z " fill="#2A4B32" transform="translate(344,66)"/>
<path d="M0 0 C-3.05688229 1.65642764 -6.12139395 3.29821792 -9.1875 4.9375 C-10.05181641 5.40607422 -10.91613281 5.87464844 -11.80664062 6.35742188 C-12.64775391 6.80537109 -13.48886719 7.25332031 -14.35546875 7.71484375 C-15.12528076 8.12855225 -15.89509277 8.54226074 -16.68823242 8.96850586 C-19.12180458 10.05434833 -21.37634398 10.5759133 -24 11 C-24 10.34 -24 9.68 -24 9 C-5.65667575 -1.88555858 -5.65667575 -1.88555858 0 0 Z " fill="#122215" transform="translate(405,554)"/>
<path d="M0 0 C0.33 0.99 0.66 1.98 1 3 C-0.375 4.5 -0.375 4.5 -2 6 C-2.66 6 -3.32 6 -4 6 C-4.2475 6.57234375 -4.495 7.1446875 -4.75 7.734375 C-6.19316199 10.35010611 -7.88216222 12.14773456 -10 14.25 C-10.70125 14.95640625 -11.4025 15.6628125 -12.125 16.390625 C-14 18 -14 18 -16 18 C-16 18.66 -16 19.32 -16 20 C-16.99 20 -17.98 20 -19 20 C-19 19.34 -19 18.68 -19 18 C-17.05872155 16.41988963 -15.01023561 15.0464337 -12.9453125 13.6328125 C-10.84325248 11.8684328 -10.15353296 10.44821553 -9 8 C-7.03814584 6.28859531 -5.03697617 4.62126675 -3 3 C-1.98319689 2.01709032 -0.97261781 1.02665213 0 0 Z " fill="#C8D4CE" transform="translate(293,378)"/>
<path d="M0 0 C0.66 0 1.32 0 2 0 C0.7020192 4.36534836 -0.97829341 7.92104178 -3.4375 11.75 C-4.03433594 12.69359375 -4.63117187 13.6371875 -5.24609375 14.609375 C-7 17 -7 17 -10 19 C-9.39301257 14.87248551 -7.96189209 11.6678852 -6 8 C-5.34 8 -4.68 8 -4 8 C-3.8453125 7.0409375 -3.8453125 7.0409375 -3.6875 6.0625 C-3.460625 5.381875 -3.23375 4.70125 -3 4 C-2.01 3.67 -1.02 3.34 0 3 C0 2.01 0 1.02 0 0 Z " fill="#102313" transform="translate(524,445)"/>
<path d="M0 0 C-0.33 0.99 -0.66 1.98 -1 3 C-3.29296875 3.84375 -3.29296875 3.84375 -6.1875 4.5 C-9.55515128 5.32127238 -12.15365057 6.07978011 -15.25 7.6875 C-18.65272522 9.31152795 -21.27659747 9.22340415 -25 9 C-22.36041882 7.24027922 -20.35251231 6.30410254 -17.40234375 5.2734375 C-16.07686523 4.809375 -16.07686523 4.809375 -14.72460938 4.3359375 C-13.80486328 4.01882812 -12.88511719 3.70171875 -11.9375 3.375 C-10.55208008 2.88773437 -10.55208008 2.88773437 -9.13867188 2.390625 C-2.26311384 0 -2.26311384 0 0 0 Z " fill="#0F1B10" transform="translate(153,105)"/>
<path d="M0 0 C-3.71644927 3.71644927 -9.17577898 5.07393429 -14 7 C-14.81339844 7.33902344 -15.62679688 7.67804687 -16.46484375 8.02734375 C-21.64188763 10.11937079 -21.64188763 10.11937079 -25 9 C-21.30827405 5.46209597 -17.90609405 5.40884117 -13 5 C-13 4.34 -13 3.68 -13 3 C-4.57142857 -0.42857143 -4.57142857 -0.42857143 0 0 Z " fill="#101B12" transform="translate(365,572)"/>
<path d="M0 0 C-3.23341194 3.09282881 -6.45179092 3.69645887 -10.6953125 4.53125 C-12.71553108 4.94214192 -14.7065127 5.49170705 -16.6875 6.0625 C-19.78853637 6.9401518 -22.81418292 7.53378287 -26 8 C-22.54171855 4.54171855 -17.59274996 3.7556878 -13 2.3125 C-11.97648438 1.97927734 -10.95296875 1.64605469 -9.8984375 1.30273438 C-8.92132813 0.99271484 -7.94421875 0.68269531 -6.9375 0.36328125 C-6.03902344 0.07751221 -5.14054687 -0.20825684 -4.21484375 -0.50268555 C-2 -1 -2 -1 0 0 Z " fill="#0D1D0F" transform="translate(223,82)"/>
<path d="M0 0 C1.41655793 -0.0272415 2.83327045 -0.04650467 4.25 -0.0625 C5.43335938 -0.07990234 5.43335938 -0.07990234 6.640625 -0.09765625 C8.90691002 -0.00385306 10.8288895 0.36758937 13 1 C13 1.66 13 2.32 13 3 C14.98 3.66 16.96 4.32 19 5 C19 5.33 19 5.66 19 6 C12.16018724 5.48378772 6.36123316 3.51409031 0 1 C0 0.67 0 0.34 0 0 Z " fill="#213324" transform="translate(273,583)"/>
<path d="M0 0 C2.75 0.1875 2.75 0.1875 6 1 C7.37073786 2.63604196 8.70055256 4.30678061 10 6 C11.73094988 7.10961452 11.73094988 7.10961452 13.625 8.0625 C17.04746223 10.02724684 17.5671352 10.58807937 19 14 C11.66504989 10.10081083 5.82206885 5.98841367 0 0 Z " fill="#17281B" transform="translate(152,519)"/>
<path d="M0 0 C5.66828055 0.59468016 10.60322154 2.09242801 15.9375 4.0625 C16.71673828 4.34416016 17.49597656 4.62582031 18.29882812 4.91601562 C20.20140125 5.60467706 22.10101725 6.30149903 24 7 C24 7.33 24 7.66 24 8 C8.19245283 6.79137466 8.19245283 6.79137466 4 2 C1.90010348 0.82425289 1.90010348 0.82425289 0 0 Z " fill="#122114" transform="translate(432,97)"/>
<path d="M0 0 C0.66 0 1.32 0 2 0 C2.33 5.61 2.66 11.22 3 17 C3.66 17 4.32 17 5 17 C5 19.31 5 21.62 5 24 C4.34 24 3.68 24 3 24 C2.49061655 21.50159546 1.99236886 19.00176612 1.5 16.5 C1.35691406 15.80390625 1.21382813 15.1078125 1.06640625 14.390625 C0.11722627 9.50912797 -0.13440046 4.97281701 0 0 Z " fill="#203927" transform="translate(63,381)"/>
<path d="M0 0 C-6.44048234 4.22656653 -12.29399697 6.48162519 -20 6 C-17.28256973 3.28256973 -14.13057954 2.49067114 -10.5625 1.3125 C-9.88123047 1.07466797 -9.19996094 0.83683594 -8.49804688 0.59179688 C-3.36635427 -1.12211809 -3.36635427 -1.12211809 0 0 Z " fill="#192A1D" transform="translate(272,65)"/>
<path d="M0 0 C0.33 0.66 0.66 1.32 1 2 C-6.29840547 10.44646925 -6.29840547 10.44646925 -10 14 C-10.99 13.67 -11.98 13.34 -13 13 C-8.66666667 8.66666667 -4.33333333 4.33333333 0 0 Z " fill="#C7D2CC" transform="translate(345,326)"/>
<path d="M0 0 C0.33 1.32 0.66 2.64 1 4 C0.01 4.33 -0.98 4.66 -2 5 C-2.33 5.99 -2.66 6.98 -3 8 C-4.33333333 8.66666667 -5.66666667 9.33333333 -7 10 C-7.33 10.99 -7.66 11.98 -8 13 C-8.66 13 -9.32 13 -10 13 C-10 13.66 -10 14.32 -10 15 C-10.99 14.67 -11.98 14.34 -13 14 C-8.88380164 9.08064098 -4.59589638 4.47352044 0 0 Z " fill="#456F5C" transform="translate(356,355)"/>
<path d="M0 0 C-3.3523056 2.96230965 -6.40986554 3.77607176 -10.75 4.6875 C-12.50570312 5.06455078 -12.50570312 5.06455078 -14.296875 5.44921875 C-15.18890625 5.63097656 -16.0809375 5.81273438 -17 6 C-16.67 5.01 -16.34 4.02 -16 3 C-10.38102832 0.33838184 -6.17288188 -0.3306901 0 0 Z " fill="#1B301F" transform="translate(132,114)"/>
<path d="M0 0 C-2.11997834 1.19733988 -4.24513676 2.38298713 -6.375 3.5625 C-6.97828125 3.90474609 -7.5815625 4.24699219 -8.203125 4.59960938 C-9.76978241 5.46127095 -11.38290862 6.23718183 -13 7 C-13.66 6.67 -14.32 6.34 -15 6 C-12.76436527 2.6465479 -11.70594127 2.18383592 -8.0625 0.75 C-7.18722656 0.39421875 -6.31195313 0.0384375 -5.41015625 -0.328125 C-3 -1 -3 -1 0 0 Z " fill="#152517" transform="translate(420,546)"/>
<path d="M0 0 C10.55808656 -0.55353075 10.55808656 -0.55353075 15 3 C14.01 3.495 14.01 3.495 13 4 C12.01 3.67 11.02 3.34 10 3 C5.46395485 2.85367596 1.42546179 2.89363455 -3 4 C-2.67 3.34 -2.34 2.68 -2 2 C-1.34 2 -0.68 2 0 2 C0 1.34 0 0.68 0 0 Z " fill="#B3BFBA" transform="translate(432,240)"/>
<path d="M0 0 C0.99 0.33 1.98 0.66 3 1 C-4.11389522 8.66742597 -4.11389522 8.66742597 -9 10 C-7.63491499 6.88271632 -6.13080302 4.91336262 -3.5625 2.6875 C-2.96566406 2.15511719 -2.36882812 1.62273437 -1.75390625 1.07421875 C-1.17511719 0.71972656 -0.59632813 0.36523438 0 0 Z " fill="#17261B" transform="translate(474,504)"/>
<path d="M0 0 C-2.09836004 1.03271642 -4.20390891 2.05083717 -6.3125 3.0625 C-7.48425781 3.63097656 -8.65601563 4.19945312 -9.86328125 4.78515625 C-13 6 -13 6 -16 5 C-5.39651958 -1.74766936 -5.39651958 -1.74766936 0 0 Z " fill="#0F1D11" transform="translate(381,566)"/>
<path d="M0 0 C0 3 0 3 -1 6 C-2.33333333 6.66666667 -3.66666667 7.33333333 -5 8 C-5.33 8.99 -5.66 9.98 -6 11 C-9.0625 12.1875 -9.0625 12.1875 -12 13 C-8.19524578 8.43969176 -4.25030379 4.14910608 0 0 Z " fill="#507765" transform="translate(381,330)"/>
<path d="M0 0 C5.18935344 0.43244612 7.92084904 0.71036213 12 4 C14.31347872 4.73260159 16.645752 5.411438 19 6 C16.01316063 7.49341969 14.04839022 6.40648676 10.875 5.5625 C9.77929688 5.27503906 8.68359375 4.98757812 7.5546875 4.69140625 C6.71164062 4.46324219 5.86859375 4.23507813 5 4 C5 3.34 5 2.68 5 2 C3.35 2 1.7 2 0 2 C0 1.34 0 0.68 0 0 Z " fill="#376749" transform="translate(406,136)"/>
<path d="M0 0 C4.31931387 0.61611835 8.25208775 1.64238578 12.375 3.0625 C13.43460937 3.42472656 14.49421875 3.78695312 15.5859375 4.16015625 C16.38257813 4.43730469 17.17921875 4.71445313 18 5 C18 5.33 18 5.66 18 6 C11.83197881 6.52493797 7.3929829 5.0095261 2 2 C1.34 1.34 0.68 0.68 0 0 Z " fill="#122015" transform="translate(465,108)"/>
<path d="M0 0 C1.97265625 1.34765625 1.97265625 1.34765625 4 3 C4.58006212 6.23177469 4.29268598 7.54877578 2.5 10.3125 C1.7575 11.1478125 1.7575 11.1478125 1 12 C-0.26237731 9.47524538 -0.09856404 7.68799534 -0.0625 4.875 C-0.05347656 3.96492187 -0.04445313 3.05484375 -0.03515625 2.1171875 C-0.02355469 1.41851562 -0.01195312 0.71984375 0 0 Z " fill="#406351" transform="translate(451,250)"/>
<path d="M0 0 C4.31931387 0.61611835 8.25208775 1.64238578 12.375 3.0625 C13.43460938 3.42472656 14.49421875 3.78695312 15.5859375 4.16015625 C16.38257813 4.43730469 17.17921875 4.71445313 18 5 C18 5.33 18 5.66 18 6 C15.36 6 12.72 6 10 6 C10 5.34 10 4.68 10 4 C7.98177083 3.83723958 5.96354167 3.67447917 3.9453125 3.51171875 C2 3 2 3 0 0 Z " fill="#101912" transform="translate(523,128)"/>
<path d="M0 0 C0.33 1.32 0.66 2.64 1 4 C-0.98 4.99 -0.98 4.99 -3 6 C-3 6.66 -3 7.32 -3 8 C-4.98 8.66 -6.96 9.32 -9 10 C-8.06409496 8.8944811 -7.12620142 7.79064547 -6.1875 6.6875 C-5.66542969 6.07261719 -5.14335937 5.45773437 -4.60546875 4.82421875 C-3.12827531 3.14575321 -1.59960869 1.56117966 0 0 Z " fill="#406956" transform="translate(427,284)"/>
<path d="M0 0 C-4.46236914 4.46236914 -11.00983875 4.49416416 -17 5 C-16 3 -16 3 -12.91015625 1.89453125 C-11.64042969 1.53746094 -10.37070313 1.18039063 -9.0625 0.8125 C-7.79535156 0.44769531 -6.52820313 0.08289063 -5.22265625 -0.29296875 C-2 -1 -2 -1 0 0 Z " fill="#0F1A11" transform="translate(197,91)"/>
<path d="M0 0 C0.33 0.99 0.66 1.98 1 3 C1.66 3 2.32 3 3 3 C6 9.625 6 9.625 6 13 C2.39998139 11.13792141 1.46510297 9.01013392 0.25 5.3125 C-0.17985483 3.87888841 -0.60082968 2.44245638 -1 1 C-0.67 0.67 -0.34 0.34 0 0 Z " fill="#1E3424" transform="translate(77,429)"/>
<path d="M0 0 C0.66 0.33 1.32 0.66 2 1 C1.34 2.32 0.68 3.64 0 5 C-0.66 5 -1.32 5 -2 5 C-2.2475 5.598125 -2.495 6.19625 -2.75 6.8125 C-4.16370012 9.28647521 -5.65055383 10.43370255 -8 12 C-7.84756033 9.33230578 -7.55349011 7.55665291 -5.6328125 5.625 C-4.10452176 4.39651749 -2.55299484 3.19710019 -1 2 C-0.67 1.34 -0.34 0.68 0 0 Z " fill="#C1CFC9" transform="translate(325,345)"/>
<path d="M0 0 C0.33 1.32 0.66 2.64 1 4 C-0.98 4.99 -0.98 4.99 -3 6 C-3 6.66 -3 7.32 -3 8 C-4.98 8.66 -6.96 9.32 -9 10 C-8.06409496 8.8944811 -7.12620142 7.79064547 -6.1875 6.6875 C-5.66542969 6.07261719 -5.14335937 5.45773437 -4.60546875 4.82421875 C-3.12827531 3.14575321 -1.59960869 1.56117966 0 0 Z " fill="#3D6550" transform="translate(410,301)"/>
<path d="M0 0 C5.05255964 0.63156995 9.29593201 2.13459373 14 4 C14 4.33 14 4.66 14 5 C12.41590006 4.88512252 10.83271037 4.75765492 9.25 4.625 C8.36828125 4.55539063 7.4865625 4.48578125 6.578125 4.4140625 C4.00933618 4.00149945 2.24158985 3.28839043 0 2 C0 1.34 0 0.68 0 0 Z " fill="#132516" transform="translate(364,73)"/>
<path d="M0 0 C-0.99 0.33 -1.98 0.66 -3 1 C-3 1.66 -3 2.32 -3 3 C-5.64 3.33 -8.28 3.66 -11 4 C-11 3.01 -11 2.02 -11 1 C-9.5437328 0.63743142 -8.08488815 0.28520207 -6.625 -0.0625 C-5.40683594 -0.35833984 -5.40683594 -0.35833984 -4.1640625 -0.66015625 C-2 -1 -2 -1 0 0 Z " fill="#24392B" transform="translate(184,96)"/>
<path d="M0 0 C1.96035175 0.44962196 3.91824309 0.90998248 5.875 1.375 C7.51082031 1.75785156 7.51082031 1.75785156 9.1796875 2.1484375 C12 3 12 3 14 5 C12.41590006 4.88512252 10.83271037 4.75765492 9.25 4.625 C8.36828125 4.55539063 7.4865625 4.48578125 6.578125 4.4140625 C4.00933618 4.00149945 2.24158985 3.28839043 0 2 C0 1.34 0 0.68 0 0 Z " fill="#101B12" transform="translate(344,66)"/>
<path d="M0 0 C4.83628305 0.99043705 9.47618873 1.95698846 14 4 C14 4.33 14 4.66 14 5 C9.02906176 4.58846263 4.55491614 4.20399168 0 2 C0 1.34 0 0.68 0 0 Z " fill="#141F17" transform="translate(329,61)"/>
<path d="M0 0 C5.62541841 0.45003347 8.61487125 1.68441485 13 5 C12.01 5.495 12.01 5.495 11 6 C8.3984375 5.00390625 8.3984375 5.00390625 5.375 3.5625 C3.87066406 2.85287109 3.87066406 2.85287109 2.3359375 2.12890625 C1.56507813 1.75636719 0.79421875 1.38382813 0 1 C0 0.67 0 0.34 0 0 Z " fill="#101B12" transform="translate(223,562)"/>
<path d="M0 0 C3.73487777 0.4979837 5.81237635 0.87491756 9 3 C9 3.66 9 4.32 9 5 C9.99 5 10.98 5 12 5 C12 5.66 12 6.32 12 7 C7.69235185 5.43358249 3.93828536 3.31663844 0 1 C0 0.67 0 0.34 0 0 Z " fill="#132318" transform="translate(179,538)"/>
<path d="M0 0 C0.99 0.33 1.98 0.66 3 1 C0.69 3.97 -1.62 6.94 -4 10 C-4.33 9.34 -4.66 8.68 -5 8 C-4.2578125 6.30859375 -4.2578125 6.30859375 -3.125 4.4375 C-2.75632812 3.81746094 -2.38765625 3.19742187 -2.0078125 2.55859375 C-1 1 -1 1 0 0 Z " fill="#122116" transform="translate(511,465)"/>
<path d="M0 0 C3.69900008 0.88776002 7.34550461 1.94581864 11 3 C11 3.66 11 4.32 11 5 C11.66 5.33 12.32 5.66 13 6 C8.15340923 5.40895235 4.39251833 4.02055843 0 2 C0 1.34 0 0.68 0 0 Z " fill="#15271B" transform="translate(483,114)"/>
<path d="M0 0 C1.79206547 0.14084796 3.58364917 0.28783701 5.375 0.4375 C6.87160156 0.55931641 6.87160156 0.55931641 8.3984375 0.68359375 C11 1 11 1 13 2 C13 2.99 13 3.98 13 5 C11.01853549 4.55170486 9.03985789 4.09107502 7.0625 3.625 C5.96035156 3.36976562 4.85820312 3.11453125 3.72265625 2.8515625 C2.82417969 2.57054687 1.92570312 2.28953125 1 2 C0.67 1.34 0.34 0.68 0 0 Z " fill="#223E29" transform="translate(316,58)"/>
<path d="M0 0 C6.625 0.75 6.625 0.75 10 3 C10 3.66 10 4.32 10 5 C8.51793505 4.745504 7.03931385 4.47088238 5.5625 4.1875 C4.73878906 4.03667969 3.91507813 3.88585937 3.06640625 3.73046875 C2.38449219 3.48941406 1.70257813 3.24835937 1 3 C0.67 2.01 0.34 1.02 0 0 Z " fill="#284932" transform="translate(235,566)"/>
<path d="M0 0 C4.95 0.99 4.95 0.99 10 2 C10.33 2.99 10.66 3.98 11 5 C9.35153231 4.55123384 7.70626545 4.09069512 6.0625 3.625 C5.14597656 3.36976563 4.22945313 3.11453125 3.28515625 2.8515625 C1 2 1 2 0 0 Z " fill="#141E17" transform="translate(292,589)"/>
<path d="M0 0 C4.38889325 0.66498383 7.9811485 2.18757677 12 4 C11.67 4.66 11.34 5.32 11 6 C8.69 5.34 6.38 4.68 4 4 C4 3.34 4 2.68 4 2 C2.68 1.34 1.36 0.68 0 0 Z " fill="#1F3326" transform="translate(253,574)"/>
<path d="M0 0 C4.39750672 0.50740462 6.86948922 3.08293314 10 6 C10 6.66 10 7.32 10 8 C6.05205855 6.32971708 3.18203882 3.8204435 0 1 C0 0.67 0 0.34 0 0 Z " fill="#162219" transform="translate(125,497)"/>
<path d="M0 0 C0.66 0.33 1.32 0.66 2 1 C0.26440562 4.057952 -1.38472619 6.63379989 -4 9 C-4.99 8.67 -5.98 8.34 -7 8 C-6.38125 7.7525 -5.7625 7.505 -5.125 7.25 C-2.6170261 5.77472123 -2.07707051 4.65125048 -1 2 C-0.67 1.34 -0.34 0.68 0 0 Z " fill="#213325" transform="translate(498,480)"/>
<path d="M0 0 C1 3 1 3 1 5 C0.34 5 -0.32 5 -1 5 C-1 5.66 -1 6.32 -1 7 C-2.98 7.66 -4.96 8.32 -7 9 C-6.02180976 7.68677212 -5.0424189 6.37443848 -4.0625 5.0625 C-3.51722656 4.33160156 -2.97195313 3.60070312 -2.41015625 2.84765625 C-1 1 -1 1 0 0 Z " fill="#4F7764" transform="translate(447,263)"/>
<path d="M0 0 C0 0.33 0 0.66 0 1 C-1.57914015 1.53341184 -3.16354387 2.05125763 -4.75 2.5625 C-5.63171875 2.85253906 -6.5134375 3.14257812 -7.421875 3.44140625 C-10.07834316 4.01697435 -11.47031106 3.89248371 -14 3 C-9.03006806 0.56574762 -5.65394631 -0.34615998 0 0 Z " fill="#142417" transform="translate(77,133)"/>
<path d="M0 0 C-0.33 0.99 -0.66 1.98 -1 3 C-5.455 3.495 -5.455 3.495 -10 4 C-6.64877401 1.34213111 -4.39380802 0 0 0 Z " fill="#112115" transform="translate(234,77)"/>
<path d="M0 0 C-9.41002278 3.25968109 -9.41002278 3.25968109 -14 4 C-13.01 3.67 -12.02 3.34 -11 3 C-10.67 2.01 -10.34 1.02 -10 0 C-3.375 -1.125 -3.375 -1.125 0 0 Z " fill="#0E1A0F" transform="translate(326,588)"/>
<path d="M0 0 C0.33 0 0.66 0 1 0 C1 2.64 1 5.28 1 8 C0.34 8 -0.32 8 -1 8 C-1.33 9.32 -1.66 10.64 -2 12 C-2.17835515 7.45194365 -1.99785435 4.1205746 0 0 Z " fill="#213E2C" transform="translate(545,389)"/>
<path d="M0 0 C2 0 2 0 4.125 1.875 C6 4 6 4 6 6 C6.66 6 7.32 6 8 6 C8.33 6.99 8.66 7.98 9 9 C4.71930097 7.41455592 2.70478088 4.5312417 0 1 C0 0.67 0 0.34 0 0 Z " fill="#0F1B14" transform="translate(111,482)"/>
<path d="M0 0 C0.97791242 2.64036353 1.03638105 3.87266632 0.25 6.625 C-1 9 -1 9 -4 11 C-3.39301257 6.87248551 -1.96189209 3.6678852 0 0 Z " fill="#1F3527" transform="translate(518,453)"/>
<path d="M0 0 C1.258125 -0.020625 2.51625 -0.04125 3.8125 -0.0625 C4.52019531 -0.07410156 5.22789062 -0.08570312 5.95703125 -0.09765625 C8 0 8 0 11 1 C11 1.66 11 2.32 11 3 C9.741875 2.87625 8.48375 2.7525 7.1875 2.625 C6.12595703 2.52058594 6.12595703 2.52058594 5.04296875 2.4140625 C3 2 3 2 0 0 Z " fill="#1B3722" transform="translate(385,82)"/>
<path d="M0 0 C3.73487777 0.4979837 5.81237635 0.87491756 9 3 C9 3.66 9 4.32 9 5 C5.22454612 3.90931332 2.52956528 3.0916909 0 0 Z " fill="#111E16" transform="translate(191,545)"/>
<path d="M0 0 C3.375 0.6875 3.375 0.6875 7 2 C8.4375 4.625 8.4375 4.625 9 7 C5.18315774 5.44499019 2.80804268 2.96404505 0 0 Z " fill="#426455" transform="translate(260,391)"/>
<path d="M0 0 C-3.83325617 2.70582788 -6.32538149 3.32613618 -11 3 C-4.33333333 -1.44444444 -4.33333333 -1.44444444 0 0 Z " fill="#131F13" transform="translate(272,65)"/>
<path d="M0 0 C1.39195915 4.17587745 -0.17676781 6.13474776 -2 10 C-2.33 10 -2.66 10 -3 10 C-2.25 3.375 -2.25 3.375 0 0 Z " fill="#0A150F" transform="translate(539,415)"/>
<path d="M0 0 C0.33 0.66 0.66 1.32 1 2 C0.34 2 -0.32 2 -1 2 C-1.33 2.99 -1.66 3.98 -2 5 C-3.65 5.33 -5.3 5.66 -7 6 C-3.375 1.125 -3.375 1.125 0 0 Z " fill="#36614C" transform="translate(418,295)"/>
<path d="M0 0 C-0.33 0.99 -0.66 1.98 -1 3 C-3.31 3.33 -5.62 3.66 -8 4 C-8 3.34 -8 2.68 -8 2 C-2.25 0 -2.25 0 0 0 Z " fill="#152519" transform="translate(153,105)"/>
<path d="M0 0 C3.73487777 0.4979837 5.81237635 0.87491756 9 3 C8.67 3.66 8.34 4.32 8 5 C5.36 3.68 2.72 2.36 0 1 C0 0.67 0 0.34 0 0 Z " fill="#142216" transform="translate(200,550)"/>
<path d="M0 0 C1.46015291 0.28241641 2.91809793 0.57626614 4.375 0.875 C5.18710937 1.03742188 5.99921875 1.19984375 6.8359375 1.3671875 C9 2 9 2 11 4 C6.55129785 4.39253254 3.85756507 3.15305957 0 1 C0 0.67 0 0.34 0 0 Z " fill="#0B100C" transform="translate(494,118)"/>
<path d="M0 0 C1.27875 0.28875 2.5575 0.5775 3.875 0.875 C4.95394531 1.11863281 4.95394531 1.11863281 6.0546875 1.3671875 C8 2 8 2 10 4 C6.14354879 4.22036864 3.50776784 3.60355101 0 2 C0 1.34 0 0.68 0 0 Z " fill="#0F1D13" transform="translate(422,93)"/>
</svg>
